# xmcd CD database file
#
# Track frame offsets:
#	150
#	4990
#	28240
#	32365
#	63198
#	72978
#	102522
#	109216
#	142218
#	169747
#	180013
#	192363
#	200046
#	215136
#
# Disc length: 2988 seconds
#
# Revision: 0
# Processed by: cddbd v1.5.2PL0 Copyright (c) Steve Scherf et al.
# Submitted via: CDex 1.70beta2
#
DISCID=d00baa0e
DTITLE=菊地成孔 南博 - 花と水
DYEAR=2009
DGENRE=Jazz
TTITLE0=即興の花と水 (一)
TTITLE1=フォール
TTITLE2=即興の花と水 (ニ)
TTITLE3=作曲された花と水
TTITLE4=即興の花と水 (三)
TTITLE5=ブルー・イン・グリーン
TTITLE6=即興の花と水 (四)
TTITLE7=オレンジ色は彼女の色
TTITLE8=ラッシュ・ライフ
TTITLE9=即興の花と水 (五)
TTITLE10=ユー・マスト・ビリーヴ・イン・スプリング
TTITLE11=即興の花と水 (六)
TTITLE12=チェンバロ協奏曲 第五番 ヘ短調 BWV 1056 第ニ楽 章: ラルゴ
TTITLE13=即興の花と水 (七)
EXTD=YEAR: 2009
EXTT0=
EXTT1=
EXTT2=
EXTT3=
EXTT4=
EXTT5=
EXTT6=
EXTT7=
EXTT8=
EXTT9=
EXTT10=
EXTT11=
EXTT12=
EXTT13=
PLAYORDER=
